<?xml version="1.0" encoding="utf-8"?>
<!-- Svg Vector Icons : http://www.onlinewebfonts.com/icon -->
<!DOCTYPE svg PUBLIC "-//W3C//DTD SVG 1.1//EN" "http://www.w3.org/Graphics/SVG/1.1/DTD/svg11.dtd">
<svg version="1.1" xmlns="http://www.w3.org/2000/svg" xmlns:xlink="http://www.w3.org/1999/xlink" x="0px" y="0px" viewBox="0 0 1000 1000" enable-background="new 0 0 1000 1000" xml:space="preserve">
<metadata> Svg Vector Icons : http://www.onlinewebfonts.com/icon </metadata>
<g><path d="M573.2,503.5c0-42.5-34.4-76.9-76.9-76.9c-42.5,0-76.9,34.4-76.9,76.9c0,42.5,34.4,76.9,76.9,76.9C538.8,580.4,573.2,546,573.2,503.5z"/><path d="M989.6,522c4.4-151.7-58.9-289.7-162.2-385.1L639.1,341.2c-28.1-24.7-62.5-42.3-100.6-49.9V8V5.4c-9.7-0.5-18.9-0.9-28.6-0.9l-0.4,0.4c-151.7,0-288,66.8-380.3,173.2l207.2,179.9c-30.9,33.8-51.3,77.3-55.8,125.5l-266.1-7.8h-2.7c-0.9,9.7-1.3,18.9-1.8,28.6l0.5,0.4C6.1,656.5,69.4,794.6,172.7,890l194.8-211.5c-0.7-0.7-1.4-1.5-2.1-2.1c28.8,21.9,63.1,36.7,100.6,42V992v2.6c9.7,0.4,18.9,0.9,28.6,0.9l0.4-0.4c151.7,0,288-66.8,380.3-173.2l-210-182.4c22.1-27.5,37.5-60.5,44.1-96.5l276.3,8.1h2.6c0.9-9.7,1.3-18.9,1.8-28.6L989.6,522z M355.6,504c0-77.8,62.9-140.7,140.7-140.7c77.8,0,140.7,62.9,140.7,140.7c0,77.8-62.9,140.7-140.7,140.7C418.4,644.6,355.6,581.8,355.6,504z"/></g>
</svg>