<?xml version="1.0" ?><svg id="Layer_1" style="enable-background:new 0 0 96 96;" version="1.1" viewBox="0 0 96 96" xml:space="preserve" xmlns="http://www.w3.org/2000/svg" xmlns:xlink="http://www.w3.org/1999/xlink"><style type="text/css">
	.st0{fill:none;stroke:#010000;stroke-width:4;stroke-linecap:round;stroke-miterlimit:10;}
	.st1{fill:none;stroke:#010000;stroke-width:4;stroke-linecap:round;stroke-linejoin:round;stroke-miterlimit:10;}
	.st2{fill:none;stroke:#010000;stroke-width:4;stroke-linejoin:round;stroke-miterlimit:10;}
	.st3{fill:none;stroke:#010000;stroke-width:6;stroke-linecap:round;stroke-linejoin:round;stroke-miterlimit:10;}
	.st4{fill:#010000;}
	.st5{fill:none;stroke:#010000;stroke-width:3.8974;stroke-linejoin:round;stroke-miterlimit:10;}
	.st6{fill:none;stroke:#010000;stroke-width:2;stroke-linecap:round;stroke-linejoin:round;stroke-miterlimit:10;}
	.st7{fill:#010000;stroke:#010000;stroke-width:2;stroke-miterlimit:10;}
	.st8{opacity:0.75;}
	.st9{fill:none;stroke:#010000;stroke-width:2;stroke-linejoin:round;stroke-miterlimit:10;}
	.st10{fill:none;stroke:#010000;stroke-width:6;stroke-linejoin:round;stroke-miterlimit:10;}
	.st11{fill:none;stroke:#010000;stroke-width:3;stroke-linejoin:round;stroke-miterlimit:10;}
	.st12{fill:none;stroke:#010000;stroke-width:3.9497;stroke-linejoin:round;stroke-miterlimit:10;}
	.st13{fill:none;stroke:#010000;stroke-width:1.9008;stroke-linejoin:round;stroke-miterlimit:10;}
	.st14{fill:none;stroke:#010000;stroke-width:1.9935;stroke-linejoin:round;stroke-miterlimit:10;}
	.st15{fill:none;stroke:#010000;stroke-width:4;stroke-miterlimit:10;}
	.st16{fill:none;stroke:#010000;stroke-width:1.9048;stroke-linecap:round;stroke-linejoin:round;stroke-miterlimit:10;}
	.st17{fill:none;stroke:#010000;stroke-width:1.934;stroke-linecap:round;stroke-linejoin:round;stroke-miterlimit:10;}
	.st18{fill:none;stroke:#010000;stroke-width:1.9684;stroke-linecap:round;stroke-linejoin:round;stroke-miterlimit:10;}
	.st19{fill:none;stroke:#010000;stroke-width:1.9343;stroke-linecap:round;stroke-linejoin:round;stroke-miterlimit:10;}
</style><path class="st2" d="M63,68h11c1.6,0,3,1.4,3,3s-1.4,3-3,3H49"/><polyline class="st1" points="48,80 62,80 53,91 47.3,91 44,85 "/><path class="st2" d="M71,68V37.5c0-1.9-1.6-3.5-3.5-3.5H41"/><polygon class="st1" points="57,24 61.3,24 66,34 52.3,34 "/><g><path class="st2" d="M59,21c0,0,0-1.4,0-3s1.8-3,4-3h7c2.2,0,4-1.8,4-4V3"/></g><g><path class="st1" d="M41.8,59.6c-2.1-2-3.8-5.9-3.8-8.8V10.2C38,7.3,35.7,5,32.8,5h-2.6C27.3,5,25,7.3,25,10.2v40.6   c0,2.9-1.6,6.9-3.5,9c0,0-3.5,3.8-3.5,9.2c0,7.7,6.3,14,14,14s14-6.3,14-14C46,63.6,41.8,59.6,41.8,59.6z"/></g><circle class="st7" cx="32" cy="69" r="8"/><line class="st1" x1="38" x2="32" y1="45" y2="45"/><line class="st1" x1="38" x2="32" y1="37" y2="37"/><line class="st1" x1="38" x2="32" y1="29" y2="29"/><line class="st1" x1="38" x2="32" y1="21" y2="21"/><line class="st1" x1="71" x2="60" y1="68" y2="68"/><polygon class="st4" points="34,56 30,56 29,62 35,62 "/></svg>