<?xml version="1.0" ?><svg id="Layer_1" style="enable-background:new 0 0 96 96;" version="1.1" viewBox="0 0 96 96" xml:space="preserve" xmlns="http://www.w3.org/2000/svg" xmlns:xlink="http://www.w3.org/1999/xlink"><style type="text/css">
	.st0{fill:none;stroke:#010000;stroke-width:4;stroke-linecap:round;stroke-miterlimit:10;}
	.st1{fill:none;stroke:#010000;stroke-width:4;stroke-linecap:round;stroke-linejoin:round;stroke-miterlimit:10;}
	.st2{fill:none;stroke:#010000;stroke-width:4;stroke-linejoin:round;stroke-miterlimit:10;}
	.st3{fill:none;stroke:#010000;stroke-width:6;stroke-linecap:round;stroke-linejoin:round;stroke-miterlimit:10;}
	.st4{fill:#010000;}
	.st5{fill:none;stroke:#010000;stroke-width:3.8974;stroke-linejoin:round;stroke-miterlimit:10;}
	.st6{fill:none;stroke:#010000;stroke-width:2;stroke-linecap:round;stroke-linejoin:round;stroke-miterlimit:10;}
	.st7{fill:#010000;stroke:#010000;stroke-width:2;stroke-miterlimit:10;}
	.st8{opacity:0.75;}
	.st9{fill:none;stroke:#010000;stroke-width:2;stroke-linejoin:round;stroke-miterlimit:10;}
	.st10{fill:none;stroke:#010000;stroke-width:6;stroke-linejoin:round;stroke-miterlimit:10;}
	.st11{fill:none;stroke:#010000;stroke-width:3;stroke-linejoin:round;stroke-miterlimit:10;}
	.st12{fill:none;stroke:#010000;stroke-width:3.9497;stroke-linejoin:round;stroke-miterlimit:10;}
	.st13{fill:none;stroke:#010000;stroke-width:1.9008;stroke-linejoin:round;stroke-miterlimit:10;}
	.st14{fill:none;stroke:#010000;stroke-width:1.9935;stroke-linejoin:round;stroke-miterlimit:10;}
	.st15{fill:none;stroke:#010000;stroke-width:4;stroke-miterlimit:10;}
	.st16{fill:none;stroke:#010000;stroke-width:1.9048;stroke-linecap:round;stroke-linejoin:round;stroke-miterlimit:10;}
	.st17{fill:none;stroke:#010000;stroke-width:1.934;stroke-linecap:round;stroke-linejoin:round;stroke-miterlimit:10;}
	.st18{fill:none;stroke:#010000;stroke-width:1.9684;stroke-linecap:round;stroke-linejoin:round;stroke-miterlimit:10;}
	.st19{fill:none;stroke:#010000;stroke-width:1.9343;stroke-linecap:round;stroke-linejoin:round;stroke-miterlimit:10;}
</style><g><path class="st0" d="M90,77.2c0-2.3-1.9-4.2-4.2-4.2H10.2C7.9,73,6,74.9,6,77.2v1.6c0,2.3,1.9,4.2,4.2,4.2h75.6   c2.3,0,4.2-1.9,4.2-4.2V77.2z"/></g><line class="st0" x1="15" x2="20" y1="83" y2="73"/><line class="st0" x1="25" x2="30" y1="83" y2="73"/><line class="st0" x1="35" x2="40" y1="83" y2="73"/><line class="st0" x1="45" x2="50" y1="83" y2="73"/><line class="st0" x1="55" x2="60" y1="83" y2="73"/><line class="st0" x1="65" x2="70" y1="83" y2="73"/><line class="st0" x1="75" x2="80" y1="83" y2="73"/><polyline class="st2" points="14,86 14,92 22,92 22,86 "/><polyline class="st2" points="74,86 74,92 82,92 82,86 "/><path class="st1" d="M48,66c0,0,4-12.2,4-16.7c0-4.8-8-11.7-8-16.7c0-4.5,4-16.7,4-16.7"/><path class="st1" d="M64,66c0,0,4-12.2,4-16.7c0-4.8-8-11.7-8-16.7c0-4.5,4-16.7,4-16.7"/><path class="st1" d="M32,66c0,0,4-12.2,4-16.7c0-4.8-8-11.7-8-16.7c0-4.5,4-16.7,4-16.7"/><path class="st1" d="M80,66c0,0,4-12.2,4-16.7c0-4.8-8-11.7-8-16.7c0-4.5,4-16.7,4-16.7"/><path class="st1" d="M16,66c0,0,4-12.2,4-16.7c0-4.8-8-11.7-8-16.7c0-4.5,4-16.7,4-16.7"/></svg>