<?xml version="1.0" encoding="UTF-8" standalone="yes"?>
<svg xmlns="http://www.w3.org/2000/svg" viewBox="0 0 32 32" width="32" height="32" fill="#000000">
  <path d="M 15 4 L 15 14.28125 C 14.402344 14.628906 14 15.261719 14 16 C 14 17.105469 14.894531 18 16 18 C 17.105469 18 18 17.105469 18 16 C 18 15.261719 17.597656 14.628906 17 14.28125 L 17 4 Z M 23.90625 6.6875 L 18.78125 11.78125 L 20.21875 13.21875 L 25.3125 8.09375 Z M 10.71875 9.28125 L 9.28125 10.71875 L 12.28125 13.71875 L 13.71875 12.28125 Z M 4 15 L 4 17 L 10.09375 17 C 10.242188 17.902344 10.621094 18.722656 11.125 19.4375 L 8.59375 22 L 10 23.40625 L 12.53125 20.875 C 13.253906 21.386719 14.085938 21.753906 15 21.90625 L 15 28 L 17 28 L 17 21.90625 C 17.914063 21.753906 18.746094 21.386719 19.46875 20.875 L 23.78125 25.21875 L 25.21875 23.78125 L 20.875 19.46875 C 21.386719 18.75 21.753906 17.914063 21.90625 17 L 25 17 L 25 15 L 20 15 L 20 16 C 20 18.277344 18.277344 20 16 20 C 13.722656 20 12 18.277344 12 16 L 12 15 Z"/>
</svg>
