<?xml version="1.0" encoding="iso-8859-1"?>
<!-- Generator: Adobe Illustrator 19.0.0, SVG Export Plug-In . SVG Version: 6.00 Build 0)  -->
<svg version="1.1" id="Capa_1" xmlns="http://www.w3.org/2000/svg" xmlns:xlink="http://www.w3.org/1999/xlink" x="0px" y="0px" viewBox="0 0 491.3 491.3" style="enable-background:new 0 0 491.3 491.3;" xml:space="preserve">
<g>
	<g>
		<path d="M167.3,426.8H64.4V321.5c0-6.9-5.6-12.4-12.4-12.4H12.5c-6.9,0-12.4,5.6-12.4,12.4V459c0,17.7,14.4,32.2,32.2,32.2h135
			c6.9,0,12.4-5.6,12.4-12.4v-39.4C179.7,432.3,174.2,426.8,167.3,426.8z"/>
		<path d="M361,265.4v-39.6c0-6.9-5.6-12.4-12.4-12.4h-70.7v-70.8c0-6.9-5.6-12.4-12.4-12.4h-39.6c-6.9,0-12.4,5.6-12.4,12.4v70.7
			h-70.9c-6.9,0-12.4,5.6-12.4,12.4v39.6c0,6.9,5.6,12.4,12.4,12.4h70.7v70.9c0,6.9,5.6,12.4,12.4,12.4h39.6
			c6.9,0,12.4-5.6,12.4-12.4v-70.7h70.9C355.5,277.9,361,272.3,361,265.4z"/>
		<path d="M12.5,172.8h39.4c6.9,0,12.4-5.6,12.4-12.4v-96h102.9c6.9,0,12.4-5.6,12.4-12.4V12.5c0-6.9-5.6-12.4-12.4-12.4h-135
			C14.5,0.1,0,14.5,0,32.3v128.1C0.1,167.3,5.7,172.8,12.5,172.8z"/>
		<path d="M478.7,309h-39.4c-6.9,0-12.4,5.6-12.4,12.4v105.3h-98.4c-6.9,0-12.4,5.6-12.4,12.4v39.4c0,6.9,5.6,12.4,12.4,12.4h130.6
			c17.7,0,32.2-14.4,32.2-32.2V321.5C491.1,314.6,485.5,309,478.7,309z"/>
		<path d="M458.9,0.1H328.4c-6.9,0-12.4,5.6-12.4,12.4v39.4c0,6.9,5.6,12.4,12.4,12.4h98.4v96c0,6.9,5.6,12.4,12.4,12.4h39.4
			c6.9,0,12.4-5.6,12.4-12.4v-128C491.1,14.5,476.7,0.1,458.9,0.1z"/>
	</g>
</g>
</svg>
