<?xml version="1.0" encoding="iso-8859-1"?>
<!-- Generator: Adobe Illustrator 19.0.0, SVG Export Plug-In . SVG Version: 6.00 Build 0)  -->
<svg version="1.1" id="Layer_1" xmlns="http://www.w3.org/2000/svg" xmlns:xlink="http://www.w3.org/1999/xlink" x="0px" y="0px"
	 viewBox="0 0 512 512" style="enable-background:new 0 0 512 512;" xml:space="preserve">
<g>
	<g>
		<g>
			<path d="M448,286.681V106.667C448,83.135,428.865,64,405.333,64h-44.5c-2.802,0-5.552-1.135-7.542-3.125l-30.167-30.167
				c-6.042-6.042-14.083-9.375-22.625-9.375h-89c-8.542,0-16.583,3.333-22.625,9.375l-30.167,30.167
				c-1.99,1.99-4.74,3.125-7.542,3.125h-44.5C83.135,64,64,83.135,64,106.667v179.848C22.253,304.03,0,326.547,0,352
				c0,57.96,109.22,91.07,220.126,95.457l-25.001,25.001c-4.167,4.167-4.167,10.917,0,15.083c2.083,2.083,4.813,3.125,7.542,3.125
				c2.729,0,5.458-1.042,7.542-3.125l42.667-42.667c4.167-4.167,4.167-10.917,0-15.083l-42.667-42.667
				c-4.167-4.167-10.917-4.167-15.083,0c-4.167,4.167-4.167,10.917,0,15.083l23.893,23.893
				C101.281,421.301,21.333,384.911,21.333,352c0-14.655,15.891-29.983,44.086-42.974c4.659,18.512,21.307,32.307,41.247,32.307
				h298.667c19.884,0,36.487-13.721,41.201-32.155c27.961,12.905,44.133,28.174,44.133,42.822
				c0,26.573-56.729,60.656-161.094,71.458c-5.865,0.615-10.125,5.854-9.521,11.708c0.573,5.49,5.208,9.573,10.604,9.573
				c0.365,0,0.74-0.021,1.104-0.052C441,433.375,512,396.99,512,352C512,326.546,489.478,304.091,448,286.681z M426.667,298.667
				c0,11.76-9.573,21.333-21.333,21.333H106.667c-11.76,0-21.333-9.573-21.333-21.333v-192c0-11.76,9.573-21.333,21.333-21.333h44.5
				c8.542,0,16.583-3.333,22.625-9.375l30.167-30.167c1.99-1.99,4.74-3.125,7.542-3.125h89c2.802,0,5.552,1.135,7.542,3.125
				l30.167,30.167c6.042,6.042,14.083,9.375,22.625,9.375h44.5c11.76,0,21.333,9.573,21.333,21.333V298.667z"/>
			<circle cx="384" cy="128" r="21.333"/>
			<path d="M256,106.667c-47.052,0-85.333,38.281-85.333,85.333s38.281,85.333,85.333,85.333s85.333-38.281,85.333-85.333
				S303.052,106.667,256,106.667z M256,256c-35.292,0-64-28.708-64-64s28.708-64,64-64s64,28.708,64,64S291.292,256,256,256z"/>
		</g>
	</g>
</g>
<g>
</g>
<g>
</g>
<g>
</g>
<g>
</g>
<g>
</g>
<g>
</g>
<g>
</g>
<g>
</g>
<g>
</g>
<g>
</g>
<g>
</g>
<g>
</g>
<g>
</g>
<g>
</g>
<g>
</g>
</svg>
