<?xml version="1.0" encoding="utf-8"?>
<!-- Svg Vector Icons : http://www.onlinewebfonts.com/icon -->
<!DOCTYPE svg PUBLIC "-//W3C//DTD SVG 1.1//EN" "http://www.w3.org/Graphics/SVG/1.1/DTD/svg11.dtd">
<svg version="1.1" xmlns="http://www.w3.org/2000/svg" xmlns:xlink="http://www.w3.org/1999/xlink" x="0px" y="0px" viewBox="0 0 1000 1000" enable-background="new 0 0 1000 1000" xml:space="preserve">
<metadata> Svg Vector Icons : http://www.onlinewebfonts.com/icon </metadata>
<g><g transform="translate(0.000000,511.000000) scale(0.100000,-0.100000)"><path d="M4589.5,4275.3v-736.8l-79.3-12.9c-578.3-94.2-927.5-199.2-1345.1-404.8C1438.6,2270.4,526.2,400.5,916-1482.2c171.4-833.2,593.3-1582.9,1223.1-2176.2c985.3-933.9,2375.4-1321.6,3718.4-1043.1C7474.7-4363.2,8744.8-3093,9076.8-1480.1c53.5,254.9,96.4,631.9,96.4,835.4v111.4h-608.3h-606.2l-12.8-239.9c-53.6-1077.4-698.3-2041.3-1675-2512.5c-216.3-102.8-454.1-182.1-719.7-239.9c-252.7-53.6-856.8-53.6-1111.7,0C3248.6-3275,2366.1-2407.6,2102.7-1229.5c-68.5,302-77.1,771.1-23.6,1092.4c201.4,1178.1,1079.5,2118.4,2240.5,2399c117.8,30,229.2,53.6,244.2,53.6c19.3,0,25.7-162.8,25.7-736.8v-739l1670.7,1043.1c918.9,574,1670.7,1047.4,1670.7,1053.8c0,6.4-751.8,475.5-1670.7,1043.1L4589.5,5010V4275.3z"/></g></g>
</svg>