<?xml version="1.0" encoding="iso-8859-1"?>
<!-- Generator: Adobe Illustrator 16.0.0, SVG Export Plug-In . SVG Version: 6.00 Build 0)  -->
<!DOCTYPE svg PUBLIC "-//W3C//DTD SVG 1.1//EN" "http://www.w3.org/Graphics/SVG/1.1/DTD/svg11.dtd">
<svg version="1.1" id="Capa_1" xmlns="http://www.w3.org/2000/svg" xmlns:xlink="http://www.w3.org/1999/xlink" x="0px" y="0px" 
viewBox="0 0 459 459" style="enable-background:new 0 0 459 459;" xml:space="preserve">
<g>
	<g id="select-all">
		<path d="M0,51h51V0C22.95,0,0,22.95,0,51z M0,255h51v-51H0V255z M102,459h51v-51h-51V459z M0,153h51v-51H0V153z M255,0h-51v51h51
			V0z M408,0v51h51C459,22.95,436.05,0,408,0z M51,459v-51H0C0,436.05,22.95,459,51,459z M0,357h51v-51H0V357z M153,0h-51v51h51V0z
			 M204,459h51v-51h-51V459z M408,255h51v-51h-51V255z M408,459c28.05,0,51-22.95,51-51h-51V459z M408,153h51v-51h-51V153z M408,357
			h51v-51h-51V357z M306,459h51v-51h-51V459z M306,51h51V0h-51V51z M102,357h255V102H102V357z M153,153h153v153H153V153z"/>
	</g>
</g>
<g>
</g>
<g>
</g>
<g>
</g>
<g>
</g>
<g>
</g>
<g>
</g>
<g>
</g>
<g>
</g>
<g>
</g>
<g>
</g>
<g>
</g>
<g>
</g>
<g>
</g>
<g>
</g>
<g>
</g>
</svg>
