<?xml version="1.0" encoding="utf-8"?>
<!-- Generator: Adobe Illustrator 16.0.0, SVG Export Plug-In . SVG Version: 6.00 Build 0)  -->
<!DOCTYPE svg PUBLIC "-//W3C//DTD SVG 1.1//EN" "http://www.w3.org/Graphics/SVG/1.1/DTD/svg11.dtd">
<svg version="1.1" id="Layer_1" xmlns="http://www.w3.org/2000/svg" xmlns:xlink="http://www.w3.org/1999/xlink" x="0px" y="0px"
	 width="16px" height="16px" viewBox="0 0 16 16" enable-background="new 0 0 16 16" xml:space="preserve">
<path fill="#222222" d="M9.964,8.45l2.743-2.743c0.391-0.391,0.391-1.023,0-1.414s-1.023-0.391-1.414,0L8.55,7.036L5.808,4.293
	c-0.39-0.391-1.023-0.391-1.414,0s-0.391,1.023,0,1.414L7.136,8.45l-2.743,2.743c-0.391,0.391-0.391,1.021,0,1.414
	c0.391,0.391,1.024,0.391,1.414,0L8.55,9.863l2.743,2.742c0.391,0.392,1.023,0.392,1.414,0s0.391-1.022,0-1.414L9.964,8.45z"/>
</svg>
