<?xml version="1.0"?>
<svg xmlns:rdf="http://www.w3.org/1999/02/22-rdf-syntax-ns#" xmlns="http://www.w3.org/2000/svg" xmlns:cc="http://creativecommons.org/ns#" xmlns:xlink="http://www.w3.org/1999/xlink" xmlns:dc="http://purl.org/dc/elements/1.1/" xmlns:svg="http://www.w3.org/2000/svg" id="svg7200" viewBox="0 0 54.664 54.664" version="1.1">
  <defs id="defs7202">
    <linearGradient id="linearGradient7302" y2="1093.7" gradientUnits="userSpaceOnUse" y1="1155.8" x2="1961.2" x1="1890.1">
      <stop id="stop6342-9-3" stop-color="#9e2323" offset="0"/>
      <stop id="stop6344-0-2" stop-color="#9e2323" stop-opacity="0" offset="1"/>
    </linearGradient>
    <linearGradient id="linearGradient7304" y2="1158.3" gradientUnits="userSpaceOnUse" y1="1220.4" x2="1879.3" x1="1805">
      <stop id="stop6316-4-0" stop-color="#731a1a" offset="0"/>
      <stop id="stop6338-0-8" stop-color="#881e1e" stop-opacity=".49804" offset=".5"/>
      <stop id="stop6318-7-1" stop-color="#9e2323" stop-opacity="0" offset="1"/>
    </linearGradient>
    <linearGradient id="linearGradient7306" y2="1197.6" gradientUnits="userSpaceOnUse" y1="1141" x2="1833.7" x1="1898.3">
      <stop id="stop6276-8-2" stop-color="#e68e8e" offset="0"/>
      <stop id="stop6278-2-8" stop-color="#9e2323" stop-opacity="0" offset="1"/>
    </linearGradient>
    <linearGradient id="linearGradient7308" x1="1922.2" gradientUnits="userSpaceOnUse" x2="1826.6" y1="1142.4" y2="1213.4">
      <stop id="stop6473-1-3" stop-color="#e8e8e8" offset="0"/>
      <stop id="stop6475-0-0" stop-color="#cdcdcd" offset="1"/>
    </linearGradient>
  </defs>
  <g id="layer1" transform="translate(-45.868 -45.101)">
    <g id="g7291">
      <g id="g6501-1-3" transform="matrix(.37033 0 0 .37033 -554.67 -360.69)">
        <path id="path6205-3-7" transform="translate(-177.2 -7.2681)" fill="url(#linearGradient7302)" d="m1946.4 1176.8c0 40.761-33.043 73.804-73.804 73.804s-73.804-33.043-73.804-73.804 33.043-73.804 73.804-73.804 73.804 33.043 73.804 73.804z"/>
        <path id="path6205-6-3-9" transform="matrix(.96689 0 0 .96689 -115.19 31.697)" fill="url(#linearGradient7304)" d="m1946.4 1176.8c0 40.761-33.043 73.804-73.804 73.804s-73.804-33.043-73.804-73.804 33.043-73.804 73.804-73.804 73.804 33.043 73.804 73.804z"/>
        <path id="path6205-1-4-4-6" transform="matrix(.58434 0 0 .58434 601.18 481.89)" fill="url(#linearGradient7306)" d="m1946.4 1176.8c0 40.761-33.043 73.804-73.804 73.804s-73.804-33.043-73.804-73.804 33.043-73.804 73.804-73.804 73.804 33.043 73.804 73.804z"/>
        <path id="path6205-1-3-2" transform="matrix(.55269 0 0 .55269 660.46 519.15)" fill="#9e2323" d="m1946.4 1176.8c0 40.761-33.043 73.804-73.804 73.804s-73.804-33.043-73.804-73.804 33.043-73.804 73.804-73.804 73.804 33.043 73.804 73.804z"/>
        <g id="g6466-9-2" transform="translate(-179.34 -8.736)" fill="url(#linearGradient7308)">
          <path id="path6416-2-7" d="m1836.9 1146.2c5.5558-5.1974 11.75-9.6886 18.568-12.694 5.7368-2.5385 11.943-4.0186 18.172-4.2078 6.3535-0.2316 12.69 0.8984 18.834 2.9425l-0.9609 2.9321c6.0533-0.019 12.502 0.8659 18.869 2.4277-4.3196-4.981-9.2979-9.7474-15.143-13.798l-0.8007 2.4434c-6.7336-2.1882-13.796-3.4053-21.007-3.2046-7.0821 0.2425-14.062 1.9161-20.494 4.7854-7.596 3.4035-14.354 8.2918-20.268 13.885z"/>
          <path id="path6416-8-7-3" d="m1923.6 1164.5c1.2425 7.5059 1.5435 15.15 0.2611 22.491-1.0702 6.1813-3.2814 12.166-6.5792 17.454-3.3319 5.4147-7.7872 10.06-12.896 14.038l-1.9066-2.4261c-3.3421 5.047-7.6555 9.9216-12.487 14.353 6.5405-0.8308 13.268-2.329 19.88-4.9456l-1.5889-2.0216c5.556-4.3886 10.486-9.5897 14.32-15.701 3.7268-6.0271 6.2062-12.763 7.3867-19.706 1.3818-8.2081 1.0636-16.543-0.3101-24.566z"/>
          <path id="path6416-8-2-2-0" d="m1864.7 1227.9c-7.209-2.4313-14.098-5.7588-19.975-10.341-4.9529-3.85-9.1963-8.6148-12.313-14.011-3.2132-5.4859-5.2197-11.602-6.3293-17.98l3.0376-0.5426c-2.884-5.3221-5.1591-11.42-6.7995-17.768-2.3409 6.1635-4.1805 12.806-4.9789 19.872l2.5311-0.4522c1.2623 6.9667 3.5356 13.763 7.1279 20.019 3.5682 6.1224 8.3482 11.477 13.922 15.782 6.5954 5.0777 14.102 8.7144 21.829 11.273z"/>
        </g>
      </g>
    </g>
  </g>
  <metadata>
    <rdf:RDF>
      <cc:Work>
        <dc:format>image/svg+xml</dc:format>
        <dc:type rdf:resource="http://purl.org/dc/dcmitype/StillImage"/>
        <cc:license rdf:resource="http://creativecommons.org/licenses/publicdomain/"/>
        <dc:publisher>
          <cc:Agent rdf:about="http://openclipart.org/">
            <dc:title>Openclipart</dc:title>
          </cc:Agent>
        </dc:publisher>
        <dc:title>Emergency Off</dc:title>
        <dc:date>2013-02-14T10:31:23</dc:date>
        <dc:description>Stop button with three arrows</dc:description>
        <dc:source>http://openclipart.org/detail/175117/emergency-off-by-twx-175117</dc:source>
        <dc:creator>
          <cc:Agent>
            <dc:title>TWX</dc:title>
          </cc:Agent>
        </dc:creator>
        <dc:subject>
          <rdf:Bag>
            <rdf:li>Arr&#xC3;&#xAA;t</rdf:li>
            <rdf:li>Bot&#xC3;&#xB3;n</rdf:li>
            <rdf:li>Bouton</rdf:li>
            <rdf:li>Button</rdf:li>
            <rdf:li>Emergency</rdf:li>
            <rdf:li>Interruptor</rdf:li>
            <rdf:li>Off</rdf:li>
            <rdf:li>Red</rdf:li>
            <rdf:li>Switch</rdf:li>
            <rdf:li>arr&#xC3;&#xAA;tez</rdf:li>
            <rdf:li>clip art</rdf:li>
            <rdf:li>clipart</rdf:li>
            <rdf:li>d'urgence</rdf:li>
            <rdf:li>emergencia</rdf:li>
            <rdf:li>rojo</rdf:li>
            <rdf:li>rouge</rdf:li>
          </rdf:Bag>
        </dc:subject>
      </cc:Work>
      <cc:License rdf:about="http://creativecommons.org/licenses/publicdomain/">
        <cc:permits rdf:resource="http://creativecommons.org/ns#Reproduction"/>
        <cc:permits rdf:resource="http://creativecommons.org/ns#Distribution"/>
        <cc:permits rdf:resource="http://creativecommons.org/ns#DerivativeWorks"/>
      </cc:License>
    </rdf:RDF>
  </metadata>
</svg>
