<?xml version="1.0" encoding="utf-8"?>
<!-- Svg Vector Icons : http://www.onlinewebfonts.com/icon -->
<!DOCTYPE svg PUBLIC "-//W3C//DTD SVG 1.1//EN" "http://www.w3.org/Graphics/SVG/1.1/DTD/svg11.dtd">
<svg version="1.1" xmlns="http://www.w3.org/2000/svg" xmlns:xlink="http://www.w3.org/1999/xlink" x="0px" y="0px" viewBox="0 0 1000 1000" enable-background="new 0 0 1000 1000" xml:space="preserve">
<metadata> Svg Vector Icons : http://www.onlinewebfonts.com/icon </metadata>
<g><path d="M10,18.2L10,18.2L10,18.2z"/><path d="M10,553.4V453.1c0-3.6,1.2-7.1,3.6-10.6c2.4-3.4,5.1-5.3,8.2-5.7l79.1-13c3.7-12.7,9.2-26.4,16.3-41.2c-11.6-17.4-26.9-38.1-45.9-62.4c-2.4-4-3.6-7.6-3.6-10.8c0-4.3,1.2-7.9,3.6-10.8c7.5-10.9,21.4-26.9,41.8-48.3c20.4-21.3,33.9-32,40.3-32c3.7,0,7.3,1.3,10.7,3.8l58.7,48.8c11.6-6.5,24.7-12.3,39.3-17.3c3.7-39.1,7.7-66.9,11.7-83.5c2.4-8.7,7.5-13,15.3-13h94.9c3.7,0,7.1,1.4,10.2,4.1c3.1,2.7,4.8,5.9,5.1,9.5l11.7,83c11.6,3.6,24.3,9.2,38.3,16.8l60.2-48.3c2.7-2.5,6.1-3.8,10.2-3.8c3.7,0,7.3,1.4,10.7,4.3c49,48.1,73.5,77,73.5,86.8c0,3.3-1.2,6.7-3.6,10.3c-4.1,5.8-11.2,15.5-21.4,29.3c-10.2,13.7-17.9,24.6-23,32.5c7.8,17.4,13.6,32.2,17.3,44.5l77.6,12.5c3.4,0.7,6.3,2.6,8.7,5.7c2.4,3.1,3.6,6.6,3.6,10.6V555c0,3.6-1.2,7.1-3.6,10.6c-2.4,3.4-5.1,5.3-8.2,5.7l-79.1,13c-3.7,12.7-9.2,26.4-16.3,41.2c11.6,17.4,26.9,38.1,45.9,62.4c2.4,3.6,3.6,7.2,3.6,10.8c0,4.3-1.2,7.8-3.6,10.3c-7.8,10.9-21.9,27-42.1,48.5c-20.2,21.5-33.6,32.3-40.1,32.3c-3.7,0-7.3-1.3-10.7-3.8l-58.7-48.8c-12.6,6.9-25.7,12.5-39.3,16.8c-3.7,39.1-7.7,67.1-11.7,84.1c-2.4,8.7-7.5,13-15.3,13h-94.9c-3.7,0-7.1-1.4-10.2-4.1c-3.1-2.7-4.8-5.9-5.1-9.5l-11.7-83c-11.6-3.6-24.3-9.2-38.3-16.8l-60.2,48.3c-2.4,2.5-5.8,3.8-10.2,3.8c-3.7,0-7.3-1.4-10.7-4.3c-49-48.1-73.5-77-73.5-86.8c0-3.3,1.2-6.7,3.6-10.3c3.4-5.1,10.4-14.6,20.9-28.7c10.5-14.1,18.5-25.1,24-33.1c-7.8-15.9-13.8-30.7-17.9-44.5l-77.6-13c-3.4-0.4-6.3-2.1-8.7-5.2C11.2,560.9,10,557.4,10,553.4L10,553.4z M206,504.1c0,38.3,12.8,71,38.3,98.2s56.3,40.7,92.4,40.7s66.9-13.6,92.4-40.7c25.5-27.1,38.3-59.8,38.3-98.2c0-38.3-12.8-71-38.3-98.2c-25.5-27.1-56.3-40.7-92.4-40.7s-66.9,13.6-92.4,40.7C218.8,433,206,465.7,206,504.1z M598,819.7v-75.9c0-5.8,25.4-11.4,76.1-16.8c4.4-10.5,9.5-19.9,15.3-28.2c-17.4-40.9-26-65.8-26-74.8c0-1.4,0.7-2.7,2-3.8c1.4-0.7,7.3-4.3,17.9-10.8s20.6-12.6,30.1-18.4c9.5-5.8,14.6-8.7,15.3-8.7c2.7,0,10.5,8.4,23.5,25.2c12.9,16.8,21.8,29,26.6,36.6c6.8-0.7,11.9-1.1,15.3-1.1c3.4,0,8.5,0.4,15.3,1.1c17.4-25.7,33-45.9,47-60.7l3.1-1.1c1.4,0,22.4,12.7,63.3,38c1.4,1.1,2,2.4,2,3.8c0,9-8.7,34-26,74.8c5.8,8.3,10.9,17.7,15.3,28.2c50.7,5.4,76.1,11,76.1,16.8v75.9c0,5.8-25.4,11.4-76.1,16.8c-4.1,9.8-9.2,19.2-15.3,28.2c17.4,40.9,26,65.8,26,74.8c0,1.4-0.7,2.7-2,3.8c-41.5,25.7-62.6,38.5-63.3,38.5c-2.7,0-10.5-8.5-23.5-25.5c-12.9-17-21.8-29.3-26.6-36.9c-6.8,0.7-11.9,1.1-15.3,1.1c-3.4,0-8.5-0.4-15.3-1.1c-4.8,7.6-13.6,19.9-26.6,36.9c-12.9,17-20.8,25.5-23.5,25.5c-0.7,0-21.8-12.8-63.3-38.5c-1.4-1.1-2-2.4-2-3.8c0-9,8.7-34,26-74.8c-6.1-9-11.2-18.4-15.3-28.2C623.4,831.1,598,825.5,598,819.7L598,819.7z M598,264.4v-75.9c0-5.8,25.4-11.4,76.1-16.8c4.4-10.5,9.5-19.9,15.3-28.2c-17.4-40.9-26-65.8-26-74.8c0-1.4,0.7-2.7,2-3.8c1.4-0.7,7.3-4.3,17.9-10.8s20.6-12.6,30.1-18.4c9.5-5.8,14.6-8.7,15.3-8.7c2.7,0,10.5,8.4,23.5,25.2c12.9,16.8,21.8,29,26.6,36.6c6.8-0.7,11.9-1.1,15.3-1.1c3.4,0,8.5,0.4,15.3,1.1c17.4-25.7,33-45.9,47-60.7l3.1-1.1c1.4,0,22.4,12.7,63.3,38c1.4,1.1,2,2.4,2,3.8c0,9-8.7,34-26,74.8c5.8,8.3,10.9,17.7,15.3,28.2c50.7,5.4,76.1,11,76.1,16.8v75.9c0,5.8-25.4,11.4-76.1,16.8c-4.1,9.8-9.2,19.2-15.3,28.2c17.4,40.9,26,65.8,26,74.8c0,1.4-0.7,2.7-2,3.8c-41.5,25.7-62.6,38.5-63.3,38.5c-2.7,0-10.5-8.5-23.5-25.5c-12.9-17-21.8-29.3-26.6-36.9c-6.8,0.7-11.9,1.1-15.3,1.1c-3.4,0-8.5-0.4-15.3-1.1c-4.8,7.6-13.6,19.9-26.6,36.9c-12.9,17-20.8,25.5-23.5,25.5c-0.7,0-21.8-12.8-63.3-38.5c-1.4-1.1-2-2.4-2-3.8c0-9,8.7-34,26-74.8c-6.1-9-11.2-18.4-15.3-28.2C623.4,275.7,598,270.1,598,264.4L598,264.4z M728.7,781.7c0,19.2,6.4,35.5,19.2,49.1c12.8,13.6,28.2,20.3,46.2,20.3s33.4-6.8,46.2-20.3c12.8-13.6,19.1-29.9,19.1-49.1c0-18.8-6.5-35.1-19.4-48.8c-12.9-13.7-28.2-20.6-45.9-20.6c-17.7,0-33,6.9-45.9,20.6C735.1,746.7,728.7,763,728.7,781.7z M728.7,226.4c0,19.2,6.4,35.5,19.2,49.1c12.8,13.6,28.2,20.3,46.2,20.3s33.4-6.8,46.2-20.3c12.8-13.6,19.1-29.9,19.1-49.1c0-18.8-6.5-35.1-19.4-48.8S811.7,157,794,157c-17.7,0-33,6.9-45.9,20.6C735.1,191.4,728.7,207.6,728.7,226.4L728.7,226.4z"/></g>
</svg>