<?xml version="1.0" encoding="utf-8"?>
<!-- Svg Vector Icons : http://www.onlinewebfonts.com/icon -->
<!DOCTYPE svg PUBLIC "-//W3C//DTD SVG 1.1//EN" "http://www.w3.org/Graphics/SVG/1.1/DTD/svg11.dtd">
<svg version="1.1" xmlns="http://www.w3.org/2000/svg" xmlns:xlink="http://www.w3.org/1999/xlink" x="0px" y="0px" viewBox="0 0 1000 1000" enable-background="new 0 0 1000 1000" xml:space="preserve">
<metadata> Svg Vector Icons : http://www.onlinewebfonts.com/icon </metadata>
<g><g transform="translate(0.000000,511.000000) scale(0.100000,-0.100000)"><path d="M2326.1,2700.8c787.3-787.3,1433.8-1433.8,1433.8-1433.8s646.4,646.5,1433.8,1433.8l1433.8,1433.8H3759.8H892.3L2326.1,2700.8z"/><path d="M7751.7,2019.2l7.5-407.5l138.3-35.2C8433.4,1440.6,8906.2,970.3,9037,447.1c135.8-535.8,10.1-1106.7-324.5-1481.5l-67.9-75.4l-218.8,236.4c-181.1,191.2-223.9,226.4-233.9,188.7c-25.2-83-322-1801-314.4-1811.1c10-7.6,1813.6,319.4,1828.7,334.5c7.5,5-93.1,115.7-221.4,244l-233.9,233.9l130.8,161C9847-949,10018-93.7,9816.8,650.8c-218.8,815-920.6,1499.2-1760.8,1713c-130.8,32.7-256.6,60.4-276.7,60.4C7751.7,2424.1,7746.7,2351.2,7751.7,2019.2z"/><path d="M100,110v-402.5h402.5h402.5V110v402.5H502.5H100V110z"/><path d="M1709.8,110v-402.5h402.5h402.5V110v402.5h-402.5h-402.5V110z"/><path d="M3319.7,110v-402.5h402.5h402.5V110v402.5h-402.5h-402.5V110z"/><path d="M4929.5,110v-402.5h402.5h402.5V110v402.5h-402.5h-402.5V110z"/><path d="M6539.3,110v-402.5h402.5h402.5V110v402.5h-402.5h-402.5V110z"/><path d="M2300.9-2506L892.3-3914.6h2829.8h2829.8L5143.3-2506c-774.7,774.7-1413.6,1408.6-1421.2,1408.6C3714.6-1097.4,3075.7-1731.2,2300.9-2506z"/></g></g>
</svg>