<?xml version="1.0" encoding="utf-8"?>
<!-- Svg Vector Icons : http://www.onlinewebfonts.com/icon -->
<!DOCTYPE svg PUBLIC "-//W3C//DTD SVG 1.1//EN" "http://www.w3.org/Graphics/SVG/1.1/DTD/svg11.dtd">
<svg version="1.1" xmlns="http://www.w3.org/2000/svg" xmlns:xlink="http://www.w3.org/1999/xlink" x="0px" y="0px" viewBox="0 0 1000 1000" enable-background="new 0 0 1000 1000" xml:space="preserve">
<metadata> Svg Vector Icons : http://www.onlinewebfonts.com/icon </metadata>
<g><g transform="translate(0.000000,511.000000) scale(0.100000,-0.100000)"><path d="M4621.8,4982c-723.6-153.8-1338.7-622.7-1674-1275.7c-113.5-216.8-221.9-532-254.6-726.1l-17.7-108.4l411,7.6l408.4,7.6l40.3,151.3c153.8,549.6,620.2,1005.9,1162.3,1132c484.1,116,1069-12.6,1411.8-307.6l105.9-88.2l-229.4-229.4l-229.4-229.4l920.2-161.3c506.7-90.8,925.3-158.8,930.3-151.3c12.6,10.1-312.6,1815.2-330.3,1835.4c-5,7.6-116-93.3-244.6-221.9l-237-237l-186.6,146.2c-216.8,171.4-557.1,340.4-839.5,416C5506.7,5012.2,4868.9,5032.4,4621.8,4982z"/><path d="M4596.6,2067.5v-403.4H5000h403.4v403.4v403.4H5000h-403.4V2067.5z"/><path d="M966.2-1197.4v-2874.1L2390.6-2647c784.1,784.1,1424.5,1434.5,1424.5,1449.7c0,15.1-640.4,665.6-1424.5,1449.7L966.2,1676.8V-1197.4z"/><path d="M7601.8,244.7c-779.1-779-1416.9-1429.5-1416.9-1442.1c0-15.1,640.4-665.6,1424.5-1449.7l1424.5-1424.5v2869.1c0,1575.7-2.5,2866.6-7.6,2866.6C9023.7,1664.2,8383.4,1026.3,7601.8,244.7z"/><path d="M4596.6,454V50.6H5000h403.4V454v403.4H5000h-403.4V454z"/><path d="M4596.6-1159.5v-403.4H5000h403.4v403.4v403.4H5000h-403.4V-1159.5z"/><path d="M4596.6-2773.1v-403.4H5000h403.4v403.4v403.4H5000h-403.4V-2773.1z"/><path d="M4596.6-4386.6V-4790H5000h403.4v403.4v403.4H5000h-403.4V-4386.6z"/></g></g>
</svg>