<?xml version="1.0" encoding="utf-8"?>
<!-- Generator: Adobe Illustrator 19.0.0, SVG Export Plug-In . SVG Version: 6.00 Build 0)  -->
<svg version="1.1" id="Layer_1" xmlns="http://www.w3.org/2000/svg" xmlns:xlink="http://www.w3.org/1999/xlink" x="0px" y="0px"
	 viewBox="0 0 96 96" style="enable-background:new 0 0 96 96;" xml:space="preserve">
<style type="text/css">
	.st0{fill:#333333;}
</style>
<g id="XMLID_2_">
	<path id="XMLID_4_" class="st0" d="M75.5,25.1v16c0,0.6-0.2,1.2-0.7,1.6c-0.5,0.5-1,0.7-1.6,0.7h-16c-1,0-1.7-0.5-2.1-1.4
		c-0.4-0.9-0.2-1.8,0.5-2.5l4.9-4.9c-3.5-3.3-7.7-4.9-12.5-4.9c-2.5,0-4.9,0.5-7.1,1.5c-2.3,1-4.2,2.3-5.9,3.9
		c-1.6,1.6-3,3.6-3.9,5.9c-1,2.3-1.5,4.6-1.5,7.1s0.5,4.9,1.5,7.1c1,2.3,2.3,4.2,3.9,5.9c1.6,1.6,3.6,3,5.9,3.9
		c2.3,1,4.6,1.5,7.1,1.5c2.8,0,5.5-0.6,8.1-1.9c2.5-1.2,4.7-3,6.4-5.3c0.2-0.2,0.4-0.4,0.8-0.4c0.3,0,0.6,0.1,0.9,0.3l4.9,4.9
		c0.2,0.2,0.3,0.4,0.3,0.7c0,0.3-0.1,0.6-0.3,0.8c-2.6,3.2-5.8,5.6-9.5,7.3c-3.7,1.7-7.6,2.6-11.7,2.6c-3.7,0-7.3-0.7-10.7-2.2
		c-3.4-1.5-6.3-3.4-8.8-5.9s-4.4-5.4-5.9-8.8c-1.5-3.4-2.2-6.9-2.2-10.7s0.7-7.3,2.2-10.7c1.5-3.4,3.4-6.3,5.9-8.8s5.4-4.4,8.8-5.9
		c3.4-1.5,6.9-2.2,10.7-2.2c3.5,0,6.9,0.7,10.2,2s6.2,3.2,8.8,5.6l4.7-4.6c0.7-0.7,1.5-0.9,2.5-0.5C75,23.4,75.5,24.1,75.5,25.1z"/>
</g>
</svg>
