<?xml version="1.0" encoding="utf-8"?>
<!-- Generator: Adobe Illustrator 19.0.0, SVG Export Plug-In . SVG Version: 6.00 Build 0)  -->
<svg version="1.1" id="Layer_1" xmlns="http://www.w3.org/2000/svg" xmlns:xlink="http://www.w3.org/1999/xlink" x="0px" y="0px"
	 viewBox="0 0 96 96" style="enable-background:new 0 0 96 96;" xml:space="preserve">
<style type="text/css">
	.st0{fill:#333333;}
</style>
<g id="XMLID_2_">
	<path id="XMLID_4_" class="st0" d="M75.5,48c0,3.7-0.7,7.3-2.2,10.7s-3.4,6.3-5.9,8.8s-5.4,4.4-8.8,5.9s-6.9,2.2-10.7,2.2
		c-4.1,0-8-0.9-11.7-2.6c-3.7-1.7-6.9-4.2-9.5-7.3c-0.2-0.2-0.2-0.5-0.2-0.8c0-0.3,0.1-0.5,0.3-0.7l4.9-4.9c0.2-0.2,0.5-0.3,0.9-0.3
		c0.4,0,0.7,0.2,0.8,0.4c1.7,2.3,3.9,4,6.4,5.3c2.5,1.2,5.2,1.9,8.1,1.9c2.5,0,4.9-0.5,7.1-1.5c2.3-1,4.2-2.3,5.9-3.9
		c1.6-1.6,3-3.6,3.9-5.9c1-2.3,1.5-4.6,1.5-7.1s-0.5-4.9-1.5-7.1c-1-2.3-2.3-4.2-3.9-5.9c-1.6-1.6-3.6-3-5.9-3.9
		c-2.3-1-4.6-1.5-7.1-1.5c-2.3,0-4.6,0.4-6.7,1.3c-2.1,0.8-4.1,2.1-5.7,3.6l4.9,4.9c0.7,0.7,0.9,1.5,0.5,2.5c-0.4,1-1.1,1.4-2.1,1.4
		h-16c-0.6,0-1.2-0.2-1.6-0.7s-0.7-1-0.7-1.6v-16c0-1,0.5-1.7,1.4-2.1c0.9-0.4,1.8-0.2,2.5,0.5l4.7,4.6c2.6-2.4,5.5-4.3,8.8-5.6
		c3.3-1.3,6.7-2,10.2-2c3.7,0,7.3,0.7,10.7,2.2c3.4,1.5,6.3,3.4,8.8,5.9s4.4,5.4,5.9,8.8C74.8,40.7,75.5,44.3,75.5,48z"/>
</g>
</svg>
