<?xml version="1.0" encoding="iso-8859-1"?>
<!-- Generator: Adobe Illustrator 16.0.0, SVG Export Plug-In . SVG Version: 6.00 Build 0)  -->
<!DOCTYPE svg PUBLIC "-//W3C//DTD SVG 1.1//EN" "http://www.w3.org/Graphics/SVG/1.1/DTD/svg11.dtd">
<svg version="1.1" id="Capa_1" xmlns="http://www.w3.org/2000/svg" xmlns:xlink="http://www.w3.org/1999/xlink" x="0px" y="0px"
	 viewBox="0 0 533.333 533.333" style="enable-background:new 0 0 533.333 533.333;"
	 xml:space="preserve">
<g>
	<path d="M533.333,233.333h-52.564C466.373,140.5,392.833,66.96,300,52.564V0h-66.667v52.564
		C140.5,66.96,66.96,140.5,52.564,233.333H0V300h52.564C66.96,392.834,140.5,466.373,233.333,480.769v52.564H300v-52.564
		c92.834-14.396,166.373-87.935,180.77-180.769h52.564V233.333z M412.928,233.333h-51.959
		c-10.046-28.412-32.558-50.926-60.97-60.969v-51.959C355.997,133.161,400.172,177.338,412.928,233.333z M266.667,300
		c-18.409,0-33.333-14.924-33.333-33.333c0-18.41,14.924-33.333,33.333-33.333S300,248.257,300,266.667
		C300,285.076,285.076,300,266.667,300z M233.333,120.405v51.959c-28.411,10.043-50.926,32.558-60.968,60.969h-51.96
		C133.16,177.338,177.337,133.161,233.333,120.405z M120.405,300h51.96c10.042,28.412,32.557,50.926,60.968,60.968v51.96
		C177.337,400.173,133.16,355.997,120.405,300z M300,412.928v-51.96c28.412-10.042,50.926-32.556,60.97-60.968h51.959
		C400.172,355.997,355.997,400.173,300,412.928z"/>
</g>
</svg>
