<?xml version="1.0" encoding="iso-8859-1"?>
<!-- Generator: Adobe Illustrator 19.0.0, SVG Export Plug-In . SVG Version: 6.00 Build 0)  -->
<svg version="1.1" id="Layer_1" xmlns="http://www.w3.org/2000/svg" xmlns:xlink="http://www.w3.org/1999/xlink" x="0px" y="0px"
	 viewBox="0 0 504.123 504.123" style="enable-background:new 0 0 504.123 504.123;" xml:space="preserve">
<path style="fill:#E4E7E7;" d="M376.516,465.526c0-39.385-55.532-71.68-124.455-71.68c-68.529,0-124.455,31.902-124.455,71.68
	c0,21.268,55.532,38.597,124.455,38.597C320.591,504.123,376.516,486.794,376.516,465.526z"/>
<path style="fill:#B6B9B9;" d="M252.061,393.846c-34.658,0-65.772,8.271-88.222,21.268c14.178,14.966,48.443,25.206,88.222,25.206
	s74.043-10.634,88.222-25.206C317.833,401.723,286.719,393.846,252.061,393.846z"/>
<path style="fill:#E4E7E7;" d="M252.061,0c113.034,0,204.8,91.766,204.8,204.8s-91.766,204.8-204.8,204.8s-204.8-91.766-204.8-204.8
	S139.027,0,252.061,0z"/>
<path style="fill:#E2574C;" d="M252.061,23.631c8.665,0,15.754,7.089,15.754,15.754s-7.089,15.754-15.754,15.754
	c-8.665,0-15.754-7.089-15.754-15.754S243.396,23.631,252.061,23.631z"/>
<path style="fill:#324D5B;" d="M252.061,78.769c-69.711,0-126.031,56.32-126.031,126.031s56.32,126.031,126.031,126.031
	s126.031-56.32,126.031-126.031S321.771,78.769,252.061,78.769z"/>
<path style="fill:#233640;" d="M252.061,110.277c-52.382,0-94.523,42.535-94.523,94.523c0,52.382,42.142,94.523,94.523,94.523
	s94.523-42.142,94.523-94.523S304.443,110.277,252.061,110.277z"/>
<path style="fill:#2B414D;" d="M252.061,133.908c-38.991,0-70.892,31.902-70.892,70.892s31.902,70.892,70.892,70.892
	s70.892-31.902,70.892-70.892S291.052,133.908,252.061,133.908z"/>
<path style="fill:#233640;" d="M252.061,169.354c-19.692,0-35.446,15.754-35.446,35.446s15.754,35.446,35.446,35.446
	s35.446-15.754,35.446-35.446S271.753,169.354,252.061,169.354z"/>
<path style="fill:#5A6870;" d="M242.214,185.108c5.514,0,9.846,4.332,9.846,9.846s-4.332,9.846-9.846,9.846
	c-5.514,0-9.846-4.332-9.846-9.846S236.701,185.108,242.214,185.108z"/>
<path style="fill:#D2D5D5;" d="M252.061,370.215c-106.338,0-193.772-81.132-204.012-185.108c-0.788,6.302-0.788,12.997-0.788,19.692
	c0,113.034,91.766,204.8,204.8,204.8s204.8-91.766,204.8-204.8c0-6.695-0.394-13.391-0.788-19.692
	C445.833,289.083,358.399,370.215,252.061,370.215z"/>
<g>
</g>
<g>
</g>
<g>
</g>
<g>
</g>
<g>
</g>
<g>
</g>
<g>
</g>
<g>
</g>
<g>
</g>
<g>
</g>
<g>
</g>
<g>
</g>
<g>
</g>
<g>
</g>
<g>
</g>
</svg>
