<?xml version="1.0" encoding="utf-8"?>
<!-- Svg Vector Icons : http://www.onlinewebfonts.com/icon -->
<!DOCTYPE svg PUBLIC "-//W3C//DTD SVG 1.1//EN" "http://www.w3.org/Graphics/SVG/1.1/DTD/svg11.dtd">
<svg version="1.1" xmlns="http://www.w3.org/2000/svg" xmlns:xlink="http://www.w3.org/1999/xlink" x="0px" y="0px" viewBox="0 0 1000 1000" enable-background="new 0 0 1000 1000" xml:space="preserve">
<metadata> Svg Vector Icons : http://www.onlinewebfonts.com/icon </metadata>
<g><g transform="translate(0.000000,511.000000) scale(0.100000,-0.100000)"><path d="M7604.9,3811.5c-109.4-35.7-130.8-230.7-33.3-294.9c16.7-9.5,397.2-23.8,844.3-30.9l811-11.9l104.7-71.3c66.6-47.6,126.1-116.5,168.9-199.8l64.2-130.8v-744.5v-746.8l59.5-57.1c71.3-73.7,128.4-73.7,211.7-9.5l64.2,49.9l-7.1,825.3c-7.1,811-7.1,825.3-64.2,937.1c-83.2,168.9-247.3,337.7-401.9,413.8l-135.6,66.6l-815.8,11.9C8028.2,3825.7,7635.8,3821,7604.9,3811.5z"/><path d="M629,3768.6c-166.5-64.2-337.7-223.6-437.6-406.7l-80.9-149.8l-7.1-834.8c-7.1-815.8-7.1-832.4,42.8-877.6c69-61.8,187.9-57.1,242.6,9.5c40.4,52.3,42.8,111.8,42.8,808.7v754l66.6,130.8c40.4,83.3,99.9,152.2,166.5,199.8l104.7,71.3l808.7,11.9l808.7,11.9l45.2,57.1c59.5,71.3,57.1,157-2.4,216.4c-45.2,45.2-78.5,47.6-861,45.2C812.1,3816.2,743.2,3813.8,629,3768.6z"/><path d="M4893.5,3459.5l-61.8-47.6v-639.8v-637.4l-159.4-26.2c-758.7-128.4-1360.4-637.4-1600.7-1350.9c-38.1-116.5-76.1-273.5-85.6-347.2l-16.6-135.6h-637.4c-608.9,0-642.2-2.4-687.4-47.6c-61.8-61.8-61.8-176,0-237.8c45.2-45.2,78.5-47.6,689.7-47.6h642.2v-66.6c0-137.9,97.5-451.9,214.1-687.4c92.8-187.9,159.4-283,302.1-435.2c347.2-368.7,701.6-563.7,1179.7-644.5l159.4-26.2v-637.4v-639.8l61.8-47.6c83.2-64.2,140.3-61.9,211.7,9.5l59.5,57.1v630.3v630.3l90.4,14.3c494.7,83.3,799.1,237.8,1148.8,582.7C6636.9-1088,6770-893,6872.3-629c59.5,152.2,123.7,411.5,123.7,506.6v64.2h642.2c611.3,0,644.5,2.4,689.7,47.6c26.2,26.2,47.6,78.5,47.6,118.9s-21.4,92.8-47.6,118.9c-45.2,45.2-78.5,47.6-689.7,47.6H6996v78.5c0,92.8-71.3,363.9-137.9,528c-166.5,413.8-561.3,837.2-968,1039.4c-149.8,76.1-382.9,149.8-575.6,187.9l-149.8,28.5v637.4v637.4l-61.8,47.6c-35.7,28.5-80.9,49.9-104.7,49.9S4929.1,3488,4893.5,3459.5z M4831.6,1511.5c0-254.5,4.8-290.2,47.6-333c54.7-54.7,161.7-61.8,228.3-14.3c38.1,28.5,47.6,73.7,57.1,330.6l11.9,294.9l166.5-33.3c92.7-19,264-80.8,392.4-142.7c470.9-228.3,842-725.4,915.7-1224.9l16.7-114.2H6380c-256.9,0-292.5-4.8-335.3-47.6c-26.2-26.2-47.6-78.5-47.6-118.9s21.4-92.7,47.6-118.9c42.8-42.8,78.5-47.6,335.3-47.6h287.8L6651.1-170c-47.6-335.3-209.3-635-485.2-913.3c-173.6-173.6-240.2-223.6-430.5-313.9c-123.7-59.5-299.7-123.7-392.4-142.7l-166.5-33.3l-7.1,292.6c-7.2,283-7.2,294.9-69,342.5c-78.5,59.5-126.1,59.5-206.9-2.4c-61.8-47.6-61.8-54.7-61.8-340.1v-292.6l-130.8,21.4c-176,26.2-323.5,78.5-523.2,180.8c-202.2,104.7-537.5,428.1-651.7,627.9c-88,154.6-183.1,421-206.9,577.9l-14.3,107h287.8c256.9,0,292.5,4.8,335.4,47.6c26.2,26.2,47.6,78.5,47.6,118.9s-21.4,92.8-47.6,118.9c-42.8,42.8-78.5,47.6-333,47.6c-223.6,0-285.4,7.1-285.4,30.9c0,19,21.4,114.2,47.6,216.4c176,689.7,739.7,1182.1,1457.9,1272.4C4824.5,1796.9,4831.6,1668.5,4831.6,1511.5z"/><path d="M205.6-1247.4c-109.4-42.8-109.4-45.2-102.3-920.4c7.1-822.9,7.1-827.7,66.6-946.6c85.6-178.4,292.5-373.4,459-435.2c130.8-50,176-52.3,941.8-52.3c749.2,0,806.3,2.4,842,42.8c49.9,54.7,52.3,180.8,2.4,228.3c-19,21.4-38.1,40.4-40.4,42.8c-2.4,2.4-363.9,11.9-806.3,19l-799.1,11.9l-102.3,71.3c-64.2,45.2-128.4,118.9-168.9,199.8L431.6-2860v756.3c0,685-4.8,761.1-40.4,803.9C338.8-1240.3,269.9-1221.2,205.6-1247.4z"/><path d="M9617-1278.3c-52.3-54.7-52.3-66.6-52.3-818.2V-2860l-66.6-126.1c-40.4-80.9-104.7-154.6-168.9-199.8l-102.3-71.3l-799.1-11.9c-442.4-7.1-803.9-16.7-806.3-19c-2.4-2.4-21.4-21.4-40.4-42.8c-52.3-50-47.6-183.1,7.2-233.1c40.4-35.7,121.3-38,872.9-33.3l830.1,7.1l137.9,69c161.7,83.2,294.9,221.2,390.1,399.6l66.6,126l7.1,837.2l7.1,834.8l-52.3,50C9776.3-1207,9681.2-1209.3,9617-1278.3z"/></g></g>
</svg>