<?xml version="1.0" encoding="utf-8"?>
<!-- Svg Vector Icons : http://www.onlinewebfonts.com/icon -->
<!DOCTYPE svg PUBLIC "-//W3C//DTD SVG 1.1//EN" "http://www.w3.org/Graphics/SVG/1.1/DTD/svg11.dtd">
<svg version="1.1" xmlns="http://www.w3.org/2000/svg" xmlns:xlink="http://www.w3.org/1999/xlink" x="0px" y="0px" viewBox="0 0 1000 1000" enable-background="new 0 0 1000 1000" xml:space="preserve">
<metadata> Svg Vector Icons : http://www.onlinewebfonts.com/icon </metadata>
<g><g><path d="M850.1,559.3V851c0,10.5-3.8,19.7-11.5,27.4c-7.7,7.7-16.8,11.5-27.4,11.5H577.8V656.5H422.2v233.4H188.8c-10.5,0-19.7-3.8-27.4-11.5c-7.7-7.7-11.5-16.8-11.5-27.4V559.3c0-0.4,0.1-1,0.3-1.8s0.3-1.4,0.3-1.8L500,267.5l349.5,288.1C849.9,556.4,850.1,557.6,850.1,559.3L850.1,559.3z M985.7,517.3l-37.7,45c-3.2,3.6-7.5,5.9-12.8,6.7h-1.8c-5.3,0-9.5-1.4-12.8-4.3L500,214L79.4,564.7c-4.9,3.2-9.7,4.7-14.6,4.3c-5.3-0.8-9.5-3-12.8-6.7l-37.7-45c-3.2-4.1-4.7-8.8-4.3-14.3c0.4-5.5,2.6-9.8,6.7-13.1l437-364.1c13-10.5,28.4-15.8,46.2-15.8c17.8,0,33.2,5.3,46.2,15.8l148.3,124V131.3c0-5.7,1.8-10.3,5.5-14s8.3-5.5,14-5.5h116.7c5.7,0,10.3,1.8,14,5.5s5.5,8.3,5.5,14v248L983.2,490c4.1,3.2,6.3,7.6,6.7,13.1C990.3,508.5,988.9,513.3,985.7,517.3L985.7,517.3z"/></g></g>
</svg>
