<?xml version="1.0" encoding="utf-8"?>
<!-- Svg Vector Icons : http://www.onlinewebfonts.com/icon -->
<!DOCTYPE svg PUBLIC "-//W3C//DTD SVG 1.1//EN" "http://www.w3.org/Graphics/SVG/1.1/DTD/svg11.dtd">
<svg version="1.1" xmlns="http://www.w3.org/2000/svg" xmlns:xlink="http://www.w3.org/1999/xlink" x="0px" y="0px" viewBox="0 0 1000 1000" enable-background="new 0 0 1000 1000" xml:space="preserve">
<metadata> Svg Vector Icons : http://www.onlinewebfonts.com/icon </metadata>
<g><g transform="translate(0.000000,511.000000) scale(0.100000,-0.100000)"><path d="M4542.6,4922.1c-1093.1-192.7-1952.3-867-2379-1867.8c-92.4-218.2-182.8-554.4-218.2-812c-33.4-249.7-11.8-788.4,41.3-1038.1c129.8-609.5,434.5-1193.4,953.6-1828.5c283.1-344.1,908.3-1051.9,1466.7-1659.4c253.6-275.2,495.4-538.7,538.7-587.9l80.6-88.5l452.2,528.9C7010-638,7419-117,7723.7,431.6c444.4,806.1,525,1576.8,249.7,2406.5c-294.9,888.7-1010.6,1622-1887.5,1934.6c-363.7,129.8-548.5,161.2-992.9,169.1C4815.9,4945.7,4644.8,4939.8,4542.6,4922.1z M5338.9,3288.3c576-121.9,1024.3-552.5,1171.8-1130.5c53.1-204.5,53.1-525-2-737.3c-173-682.2-776.6-1150.2-1486.4-1150.2c-935.9,0-1651.5,841.5-1500.1,1769.5c51.1,318.5,196.6,597.7,438.4,835.6c224.1,220.2,460.1,350,747.1,412.9C4869,3323.7,5169.8,3323.7,5338.9,3288.3z"/><path d="M3009-2051.6c-1517.8-200.5-2573.6-589.8-2843-1051.9c-391.2-666.5,989-1327.1,3246-1549.3c1071.5-106.2,2471.4-90.4,3529.1,37.4c617.4,76.7,1252.4,208.4,1718.4,357.8c524.9,169.1,825.8,326.4,1047.9,546.6c118,118,145.5,157.3,173,253.6c90.4,308.7-133.7,585.9-682.3,845.4c-511.2,243.8-1374.3,462-2233.5,564.3l-202.5,23.6l-145.5-143.5c-80.6-80.6-143.5-147.5-141.6-149.4c2-3.9,167.1-19.7,367.7-37.4c1224.9-106.2,1960.2-322.4,2115.5-621.3c175-340.2-430.6-709.8-1511.9-920.1c-1913-373.6-4626.2-243.8-5870.7,281.2c-570.2,239.9-713.7,560.3-363.7,810c312.6,224.1,1169.8,405,2215.8,471.9l214.3,13.8l-155.3,155.3c-82.6,84.5-161.2,153.4-173,151.4C3303.9-2012.3,3166.3-2031.9,3009-2051.6z"/></g></g>
</svg>
