<?xml version="1.0" encoding="utf-8"?>
<!-- Svg Vector Icons : http://www.onlinewebfonts.com/icon -->
<!DOCTYPE svg PUBLIC "-//W3C//DTD SVG 1.1//EN" "http://www.w3.org/Graphics/SVG/1.1/DTD/svg11.dtd">
<svg version="1.1" xmlns="http://www.w3.org/2000/svg" xmlns:xlink="http://www.w3.org/1999/xlink" x="0px" y="0px" viewBox="0 0 1000 1000" enable-background="new 0 0 1000 1000" xml:space="preserve">
<metadata> Svg Vector Icons : http://www.onlinewebfonts.com/icon </metadata>
<g><path d="M939.3,231L523.5,646.8L220,759.6l114.4-302.4L750.2,41.4c41.8-41.8,109.6-41.8,151.5,0L939.3,79C981.1,121.4,981.1,189.2,939.3,231L939.3,231L939.3,231z M312.2,667.4l182.2-67.8l10.1-10.1L391.1,476.2L381,486.3L312.2,667.4L312.2,667.4z M428.7,438.1L542,551.5l283.4-283.4L712.1,154.7L428.7,438.1L428.7,438.1z M901.7,116.6L864.1,79c-20.7-20.7-55.1-20.7-75.7,0l-38.1,38.1l113.3,113.4l38.1-38.1C922.3,171.7,922.3,137.8,901.7,116.6L901.7,116.6L901.7,116.6z M773.5,990H189.8c-88.5,0-160.5-72-160.5-160.5V245.8c0-88.5,72-160.5,160.5-160.5h289.7v63H189.8c-54,0-97.5,44-97.5,97.5v583.7c0,54,44,97.5,97.5,97.5h583.7c54,0,97.5-44,97.5-97.5V556.2h63v273.3C934,918,862,990,773.5,990L773.5,990L773.5,990z"/></g>
</svg>