<?xml version="1.0" standalone="no"?>
<!DOCTYPE svg PUBLIC "-//W3C//DTD SVG 20010904//EN"
 "http://www.w3.org/TR/2001/REC-SVG-20010904/DTD/svg10.dtd">
<svg version="1.0" xmlns="http://www.w3.org/2000/svg"
 width="300.000000pt" height="225.000000pt" viewBox="0 0 300.000000 225.000000"
 preserveAspectRatio="xMidYMid meet">
<metadata>
Created by potrace 1.10, written by Peter Selinger 2001-2011
</metadata>
<g transform="translate(0.000000,225.000000) scale(0.100000,-0.100000)"
fill="#000000" stroke="none">
<path d="M1090 1490 c-136 -24 -210 -99 -210 -215 0 -110 54 -167 215 -230
119 -46 155 -74 155 -121 0 -81 -100 -112 -255 -78 -38 8 -82 17 -97 21 l-28
6 0 -71 0 -71 58 -12 c90 -20 257 -17 320 5 105 36 161 113 162 219 0 105 -46
163 -169 213 -189 76 -213 96 -197 158 15 60 154 74 299 30 15 -5 17 2 17 60
0 74 5 70 -105 86 -79 11 -101 11 -165 0z"/>
<path d="M2393 1469 c-150 -58 -236 -250 -205 -459 20 -140 67 -215 167 -268
46 -25 60 -27 165 -27 65 0 133 6 158 13 l42 13 0 68 0 69 -62 -20 c-91 -28
-183 -22 -233 16 -59 45 -80 102 -80 221 0 109 13 159 52 206 61 72 149 82
301 34 21 -7 22 -5 22 63 l0 71 -37 10 c-66 19 -231 13 -290 -10z"/>
<path d="M262 1423 l3 -58 138 -3 137 -3 0 -207 c0 -114 -5 -224 -10 -244 -17
-59 -53 -81 -125 -76 -34 2 -79 13 -103 25 l-43 21 3 -71 3 -70 40 -15 c59
-21 180 -21 237 1 65 25 123 92 137 158 6 29 11 167 11 324 l0 275 -215 0
-216 0 3 -57z"/>
<path d="M1520 1101 l0 -381 143 0 c78 0 162 5 187 11 99 22 190 103 226 200
9 24 19 90 21 148 9 162 -19 254 -96 324 -71 64 -95 70 -298 75 l-183 4 0
-381z m313 245 c78 -33 110 -103 111 -241 0 -87 -3 -107 -25 -156 -35 -75 -77
-101 -175 -107 l-74 -5 0 262 0 261 65 0 c36 0 80 -6 98 -14z"/>
</g>
</svg>
