<?xml version="1.0" encoding="utf-8"?>
<!-- Svg Vector Icons : http://www.onlinewebfonts.com/icon -->
<!DOCTYPE svg PUBLIC "-//W3C//DTD SVG 1.1//EN" "http://www.w3.org/Graphics/SVG/1.1/DTD/svg11.dtd">
<svg version="1.1" xmlns="http://www.w3.org/2000/svg" xmlns:xlink="http://www.w3.org/1999/xlink" x="0px" y="0px" viewBox="0 0 1000 1000" enable-background="new 0 0 1000 1000" xml:space="preserve">
<metadata> Svg Vector Icons : http://www.onlinewebfonts.com/icon </metadata>
<g><path d="M349.4,781.5c7.1,24.9,19.6,46.3,35.6,62.4c-14.3,5.4-30.3,7.1-44.6,7.1c-51.7,0-105.2-35.6-158.6-35.6c-51.7,0-103.4,37.4-156.8,37.4c0-23.2,0-46.3,0-71.3c53.5,0,105.2-35.6,156.8-35.6c55.3,0,106.9,35.6,158.6,35.6C342.3,781.5,345.8,781.5,349.4,781.5L349.4,781.5z M552.6,650.5v-79.4h140.8v-60H552.6V415h140.8v-60H552.6V253.9h140.8v-60H552.6V79.3c0-92.3-140.8-92.3-140.8,0v574.3c-27.6,21.5-45.3,55.1-45.3,92.8c0,65,52.7,117.7,117.7,117.7c65,0,117.7-52.7,117.7-117.7C601.9,706.8,582.5,671.9,552.6,650.5L552.6,650.5z M975,990c-53.5,0-106.9-35.6-160.4-35.6S711.2,990,657.7,990c-53.5,0-103.4-35.6-156.8-35.6c-53.5,0-106.9,35.6-160.4,35.6c-49.9,0-103.4-35.6-156.8-35.6c-53.5,0-103.4,35.6-156.8,35.6c0-21.4,0-46.3,0-71.3c53.5,0,103.4-35.6,156.8-35.6c53.5,0,106.9,35.6,156.8,35.6c53.5,0,106.9-35.6,160.4-35.6c53.5,0,103.4,35.6,156.8,35.6c53.5,0,103.4-35.6,156.8-35.6c53.5,0,106.9,35.6,160.4,35.6C975,943.7,975,965.1,975,990L975,990z M590,838.5c16-17.8,26.7-37.4,32.1-60.6c12.5,3.6,23.2,3.6,35.7,3.6c51.7,0,103.4-35.6,156.8-35.6c53.5,0,106.9,35.6,158.6,35.6c0,23.2,0,46.3,0,69.5c-51.7,0-105.2-35.6-158.6-35.6S709.4,851,657.7,851C634.6,851,611.4,845.6,590,838.5z"/></g>
</svg>