<?xml version="1.0" encoding="utf-8"?>
<!-- Generator: Adobe Illustrator 16.0.0, SVG Export Plug-In . SVG Version: 6.00 Build 0)  -->
<!DOCTYPE svg PUBLIC "-//W3C//DTD SVG 1.1//EN" "http://www.w3.org/Graphics/SVG/1.1/DTD/svg11.dtd">
<svg version="1.1" id="Layer_1" xmlns="http://www.w3.org/2000/svg" xmlns:xlink="http://www.w3.org/1999/xlink" x="0px" y="0px"
	 width="16px" height="16px" viewBox="0 0 16 16" enable-background="new 0 0 16 16" xml:space="preserve">
<path id="iconThSort_1_" fill="#222222" d="M11.9,9.6C11.7,9.4,11.4,9.4,11.2,9.5L9,11.4V5.5C9,5.2,8.7,5,8.5,5C8.2,5,8,5.2,8,5.5
	v5.9L5.7,9.5C5.5,9.4,5.2,9.4,5,9.6c-0.2,0.2-0.1,0.5,0.1,0.7l3,2.5l0,0C8.2,12.9,8.3,12.9,8.4,13l0,0h0.1l0,0l0,0h0.1l0,0l0,0H8.7
	c0,0,0.1,0,0.1-0.1C8.8,12.8,8.9,12.9,8.9,12.8l0,0l0,0l3-2.5C12,10.1,12.1,9.8,11.9,9.6z"/>
</svg>
