<?xml version="1.0" encoding="utf-8"?>
<!-- Generator: Adobe Illustrator 16.0.0, SVG Export Plug-In . SVG Version: 6.00 Build 0)  -->
<!DOCTYPE svg PUBLIC "-//W3C//DTD SVG 1.1//EN" "http://www.w3.org/Graphics/SVG/1.1/DTD/svg11.dtd">
<svg version="1.1" id="Layer_1" xmlns="http://www.w3.org/2000/svg" xmlns:xlink="http://www.w3.org/1999/xlink" x="0px" y="0px"
	 width="16px" height="16px" viewBox="0 0 16 16" enable-background="new 0 0 16 16" xml:space="preserve">
<path id="iconThSort_2_" fill="#222222" d="M11.9,7.7l-3-2.5l0,0l0,0c0-0.1-0.103,0-0.103-0.1S8.7,5,8.7,5H8.6l0,0l0,0H8.5l0,0l0,0
	H8.4l0,0C8.3,5.1,8.2,5.1,8.1,5.2l0,0l-3,2.5C4.9,7.9,4.8,8.2,5,8.4s0.5,0.2,0.7,0.1L8,6.6v5.9C8,12.8,8.2,13,8.5,13
	C8.7,13,9,12.8,9,12.5V6.6l2.2,1.9c0.2,0.1,0.5,0.1,0.7-0.1C12.1,8.2,12,7.9,11.9,7.7z"/>
</svg>
