<?xml version="1.0" encoding="iso-8859-1"?>
<!-- Generator: Adobe Illustrator 19.0.0, SVG Export Plug-In . SVG Version: 6.00 Build 0)  -->
<svg version="1.1" id="Layer_1" xmlns="http://www.w3.org/2000/svg" xmlns:xlink="http://www.w3.org/1999/xlink" x="0px" y="0px"
	 viewBox="0 0 512 512" style="enable-background:new 0 0 512 512;" xml:space="preserve">
<g>
	<g>
		<path d="M511.083,100.779c-0.171-0.597-0.427-1.152-0.661-1.728c-0.469-1.28-1.067-2.475-1.792-3.627
			c-0.363-0.597-0.725-1.152-1.152-1.685c-0.832-1.088-1.771-2.048-2.795-2.944c-0.469-0.427-0.896-0.875-1.387-1.259
			c-0.149-0.107-0.256-0.235-0.405-0.341c-1.493-1.045-3.093-1.877-4.757-2.496c-0.064-0.021-0.107-0.064-0.171-0.085L263.296,1.28
			c-4.715-1.707-9.877-1.707-14.592,0L14.037,86.613c-0.064,0.021-0.107,0.064-0.171,0.107c-1.664,0.619-3.264,1.429-4.757,2.475
			c-0.149,0.107-0.256,0.235-0.405,0.341c-0.491,0.384-0.917,0.832-1.387,1.259c-1.024,0.896-1.963,1.856-2.795,2.944
			c-0.427,0.533-0.789,1.088-1.152,1.685c-0.725,1.152-1.323,2.347-1.792,3.627c-0.235,0.576-0.491,1.131-0.661,1.728
			C0.363,102.677,0,104.64,0,106.667v298.667c0,8.96,5.611,16.981,14.037,20.053l234.667,85.333c0.149,0.043,0.32,0.021,0.469,0.085
			c2.219,0.747,4.501,1.195,6.827,1.195s4.608-0.448,6.827-1.195c0.149-0.064,0.32-0.043,0.469-0.085l234.667-85.333
			c8.427-3.072,14.037-11.093,14.037-20.053V106.667C512,104.64,511.637,102.677,511.083,100.779z M234.667,460.203l-192-69.803
			V137.131l192,69.803V460.203z M469.333,390.4l-192,69.803V206.933l192-69.803V390.4z"/>
	</g>
</g>
<g>
</g>
<g>
</g>
<g>
</g>
<g>
</g>
<g>
</g>
<g>
</g>
<g>
</g>
<g>
</g>
<g>
</g>
<g>
</g>
<g>
</g>
<g>
</g>
<g>
</g>
<g>
</g>
<g>
</g>
</svg>
