<?xml version="1.0" encoding="iso-8859-1"?>
<!-- Generator: Adobe Illustrator 16.0.0, SVG Export Plug-In . SVG Version: 6.00 Build 0)  -->
<!DOCTYPE svg PUBLIC "-//W3C//DTD SVG 1.1//EN" "http://www.w3.org/Graphics/SVG/1.1/DTD/svg11.dtd">
<svg version="1.1" id="Capa_1" xmlns="http://www.w3.org/2000/svg" xmlns:xlink="http://www.w3.org/1999/xlink" x="0px" y="0px" viewBox="0 0 576.469 576.469" style="enable-background:new 0 0 576.469 576.469;" xml:space="preserve">
<g>
	<g>
		<path d="M275.762,95.253v38.955l116.228-67.104L275.762,0v39.283c-69.728,2.266-134.601,34.249-178.988,88.56l43.305,35.392
			C173.798,121.976,222.893,97.493,275.762,95.253z"/>
		<path d="M537.185,275.761c-2.268-69.73-34.25-134.602-88.562-178.989l-35.391,43.305c41.258,33.719,65.74,82.814,67.979,135.684
			h-38.951l67.104,116.228l67.105-116.228H537.185z"/>
		<path d="M300.706,481.211V442.26l-116.227,67.104l116.227,67.105v-39.285c69.73-2.268,134.604-34.25,178.988-88.562L436.39,413.23
			C402.671,454.488,353.575,478.971,300.706,481.211z"/>
		<path d="M95.255,300.705h38.953L67.106,184.477L0.001,300.705h39.284c2.267,69.729,34.249,134.604,88.56,178.988l35.392-43.305
			C121.978,402.67,97.495,353.574,95.255,300.705z"/>
	</g>
</g>
</svg>
