<?xml version="1.0" encoding="utf-8"?>
<!-- Svg Vector Icons : http://www.onlinewebfonts.com/icon -->
<!DOCTYPE svg PUBLIC "-//W3C//DTD SVG 1.1//EN" "http://www.w3.org/Graphics/SVG/1.1/DTD/svg11.dtd">
<svg version="1.1" xmlns="http://www.w3.org/2000/svg" xmlns:xlink="http://www.w3.org/1999/xlink" x="0px" y="0px" viewBox="0 0 1000 1000" enable-background="new 0 0 1000 1000" xml:space="preserve">
<metadata> Svg Vector Icons : http://www.onlinewebfonts.com/icon </metadata>
<g><path d="M555.3,296.3c-13-13-34-13-46.9,0L328.2,476.5c-13,13-13,34,0,46.9l180.2,180.2c13,13,34,13,46.9,0l180.2-180.2c13-13,13-34,0-46.9L555.3,296.3z M933.6,101.5l-52,52l-0.6-2.7C791.2,63.7,667.9,10,531.9,10C256.9,10,34.1,229.4,34.1,500c0,270.6,222.9,490,497.8,490c136.1,0,259.3-53.7,349.2-140.8l-99.4-99.4c-32,30.7-69,54.9-110.1,72c-44.2,18.4-91.2,27.7-139.8,27.7s-95.6-9.3-139.8-27.7c-42.6-17.7-80.8-43.1-113.7-75.4c-67-65.9-103.9-153.4-103.9-246.4c0-92.9,36.9-180.4,103.9-246.4c32.8-32.3,71.1-57.7,113.7-75.4c44.2-18.4,91.2-27.7,139.8-27.7s95.6,9.3,139.8,27.7c41,17.1,78,41.3,110.1,72l2.4,0.8L730,305.2c-11.9,11.9-3.5,32.3,13.4,32.3H947c10.4,0,18.9-8.5,18.9-18.9V114.9C965.9,98,945.6,89.6,933.6,101.5z"/></g>
</svg>