<?xml version="1.0" encoding="iso-8859-1"?>
<!-- Generator: Adobe Illustrator 19.0.0, SVG Export Plug-In . SVG Version: 6.00 Build 0)  -->
<svg version="1.1" id="Capa_1" xmlns="http://www.w3.org/2000/svg" xmlns:xlink="http://www.w3.org/1999/xlink" x="0px" y="0px"
	 viewBox="0 0 489.001 489.001" style="enable-background:new 0 0 489.001 489.001;" xml:space="preserve">
<g>
	<g>
		<path d="M2.2,168.151l-2.1-151.3c-0.1-7.7,6.2-14,13.9-13.9l151.3,2.2c12.1,0.2,18.1,14.8,9.5,23.4l-42.1,42.1l70,70l-65,65
			l-70-70l-42.1,42.1C17.1,186.251,2.4,180.251,2.2,168.151z"/>
		<path d="M421.3,136.551l42.1,42.1c8.6,8.6,23.2,2.6,23.4-9.5l2.2-151.3c0.1-7.7-6.2-14-13.9-13.9l-151.3,2.2
			c-12.1,0.2-18.1,14.8-9.5,23.4l42,41.9l-70,70l65,65L421.3,136.551z"/>
		<path d="M314.2,460.451c-8.6,8.6-2.6,23.2,9.5,23.4l151.3,2.2c7.7,0.1,14-6.2,13.9-13.9l-2.2-151.3c-0.2-12.1-14.8-18.1-23.4-9.5
			l-42.1,42.1l-70-70l-65,65l70,70L314.2,460.451z"/>
		<path d="M14,485.051l151.3-2.2c12.1-0.2,18.1-14.8,9.5-23.4l-42.1-42l70-70l-65-65l-70,70l-42.1-42.1c-8.6-8.6-23.2-2.6-23.4,9.5
			L0,471.151C0,478.851,6.3,485.151,14,485.051z"/>
	</g>
</g>
<g>
</g>
<g>
</g>
<g>
</g>
<g>
</g>
<g>
</g>
<g>
</g>
<g>
</g>
<g>
</g>
<g>
</g>
<g>
</g>
<g>
</g>
<g>
</g>
<g>
</g>
<g>
</g>
<g>
</g>
</svg>
