<?xml version="1.0" encoding="utf-8"?>
<!-- Svg Vector Icons : http://www.onlinewebfonts.com/icon -->
<!DOCTYPE svg PUBLIC "-//W3C//DTD SVG 1.1//EN" "http://www.w3.org/Graphics/SVG/1.1/DTD/svg11.dtd">
<svg version="1.1" xmlns="http://www.w3.org/2000/svg" xmlns:xlink="http://www.w3.org/1999/xlink" x="0px" y="0px" viewBox="0 0 1000 1000" enable-background="new 0 0 1000 1000" xml:space="preserve">
<metadata> Svg Vector Icons : http://www.onlinewebfonts.com/icon </metadata>
<g><g transform="translate(0.000000,511.000000) scale(0.100000,-0.100000)"><path d="M3951.6,4520c0-6.8,155-241.6,341.9-524.2l341.9-512.8v-376v-376h273.5h273.5v376v376l341.9,512.8c189.2,282.6,341.9,517.4,341.9,524.2c0,6.8-136.7,11.4-300.8,11.4h-303.1l-170.9-294c-93.4-161.8-177.8-289.4-184.6-284.9c-9.1,4.6-91.2,136.7-182.3,294l-168.6,284.9h-300.8C4088.4,4531.4,3951.6,4526.8,3951.6,4520z"/><path d="M4496.3,2095.1l-54.7-43.3l-11.4-1294.5l-11.4-1294.5l-1059.8-610.8c-583.4-337.3-1080.3-633.6-1103.1-656.4c-77.5-77.5-54.7-173.2,100.3-437.6c77.5-134.5,157.3-257.5,175.5-273.5c86.6-70.6,161.8-36.4,1255.8,594.9c667.8,387.4,1089.4,617.6,1112.2,608.5c18.2-6.8,508.2-287.2,1087.1-622.2c1071.2-617.6,1144.1-651.8,1230.7-578.9c52.4,43.3,312.2,494.5,325.9,569.8c9.1,45.6,0,79.8-41,123c-27.4,34.2-528.7,337.3-1112.2,672.3L5330.5-537.3L5319.1,739c-11.4,1312.7-13.7,1351.5-104.8,1385.7c-18.2,6.8-177.8,13.7-351,13.7C4587.5,2138.4,4541.9,2133.8,4496.3,2095.1z"/><path d="M214-2681.9v-193.7l442.1-4.6l442.1-6.8l-499.1-524.2L100-3935.4v-175.5v-177.8h854.7h854.6v193.7v193.7l-510.5,4.6l-510.5,6.8l501.4,519.6l499.1,521.9l-6.8,173.2l-6.8,175.5l-779.4,6.8l-781.7,4.6V-2681.9z"/><path d="M8022-2538.3c11.4-16,134.5-207.4,278-426.2c141.3-216.5,253-407.9,248.4-421.6c-6.8-15.9-139-223.3-298.6-464.9c-157.2-241.6-287.1-444.4-287.1-449c0-6.8,136.7-11.4,303.1-11.4H8569l166.4,273.5c93.4,152.7,175.5,278.1,182.3,282.6c6.8,4.5,91.2-118.5,184.6-273.5l170.9-280.3l314.5-2.3H9900l-59.2,98c-34.2,52.4-173.2,259.8-307.7,462.6l-243.9,366.9l271.2,419.3c148.1,230.2,271.2,426.2,271.2,437.6c0,9.1-132.2,16-294,16h-294l-155-275.8c-107.1-193.7-157.3-266.7-170.9-243.9c-11.4,16-84.3,139-161.8,275.8l-141.3,243.9h-305.4C8072.2-2510.9,8008.4-2517.8,8022-2538.3z"/></g></g>
</svg>